<svg xmlns="http://www.w3.org/2000/svg" viewBox="0 0 707.08 160.18"><defs><style>.cls-1{isolation:isolate;}.cls-2{fill:#357fbc;}.cls-3{fill:#444;}</style></defs><title>Vantage_web_logo</title><g id="Blue_-_Gray_Orig"><g class="cls-1"><path class="cls-2" d="M37.35 19.61l-34.63-19.61 54.63 98.81v-43.15l-20-36.05z"/><path class="cls-3" d="M114.71 0l-34.65 19.61-19.95 36.09-.02-.04v43.15l.02.05 54.6-98.86z"/><path class="cls-2" d="M60.11 104.68v32.5l57.81-104.34v-32.49l-57.81 104.33z"/><path class="cls-3" d="M0 .35v32.49l57.37 104.34v-32.5l-57.37-104.33z"/></g><path class="cls-2" d="M172.75 43.72q.57.39 14.86 27l23.12 42.09-.19.14h-23.7q-.48 0-6.08-10.81l-.82-1h-38.32v-.34l8.2-14.58h22.25v-.14q-12.6-23.5-13.41-24.57l-27.66 51.4h-23.75l-.33-.34 38-68.77.15-.15zM217.97 45.65h29.83l36.29 50.63v-50.29l.29-.34h16.94l.34.34v67l-.34.34h-29.73q-1-1-36-50.49l-.19-.14v-.14h-.21v50.43l-.34.34h-16.88l-.34-.34v-67zM308.85 43.77h86.2l.34.34v14.62l-.34.34h-33.2v54l-.34.34h-19.26l-.34-.34v-53.98h-33.06l-.33-.34v-14.66zM452 43.72q.57.39 14.86 27l23.12 42.09-.19.14h-23.7q-.48 0-6.08-10.81l-.82-1h-38.32v-.34l8.2-14.58h22.25v-.14q-12.6-23.5-13.42-24.57l-27.65 51.4h-23.75l-.33-.34 38-68.77.14-.15z"/><path class="cls-2" d="M521.78 52.31h57.29q9.81 0 13.28 9.56a16.36 16.36 0 0 1 .82 4.68v.45l-.34.34h-65.54v39.66h46.28v-12.41c0-.32-34.17-11.68-34.17-11.68v-.34h53.43l.34.34v23.79q0 6.9-5.84 11.83a15.15 15.15 0 0 1-7.58 2.27h-58.16q-10.19 0-13.42-10.53l-.48-3.71v-40q0-7.68 6.66-12.31a14.21 14.21 0 0 1 7.43-1.94z" transform="translate(-10.81 -7.91)"/><path class="cls-2" d="M590.19 44.83h84.3l.34.34v14.29l-.34.34h-65.3v38.12h65.3l.34.34v14.29l-.34.34h-84.3l-.33-.34v-67.38zm25.1 27.37h54.06l.29.29v14.33l-.29.34h-54.03l-.34-.34v-14.33z"/></g><path class="cls-2" d="M683.37 33.09h-4.18v-2.54h11.34v2.54h-4.15v11.31h-3zM692.19 30.55h4.29l3.21 9.54 3.07-9.52h4.28v13.83h-2.85v-9.82l-3.4 9.82h-2.35l-3.39-9.72v9.72h-2.86z"/><path class="cls-3" d="M280 154.21a6 6 0 0 0 6.18 5.31c1.82 0 4.32-.61 5.41-3h3.41a9 9 0 0 1-8.64 5.67c-6.53 0-9.73-4.13-9.73-9s3.2-9 9.73-9c4.42 0 9.09 2.56 9.09 9.5v.42zm12-2.5c-.48-3-2.85-4.73-5.86-4.73s-5.6 1.73-6.08 4.73z" transform="translate(-10.81 -7.91)"/><path class="cls-3" d="M292.37 146.2c.07 4.1 3.91 5.15 7.36 5.15 3.62 0 6.18-1.37 6.18-3.87 0-2.08-1.63-2.94-4.26-3.39l-5.18-.86c-2.72-.45-6.78-1.54-6.78-6 0-4.16 3.29-6.94 9.15-6.94 4.57 0 9.41 1.66 9.73 7.17h-3.38c-.28-1.79-1.31-4.23-6.78-4.23-2.5 0-5.31 1.06-5.31 3.75 0 1.4.93 2.52 3.74 3l5.6 1c1.79.31 6.88 1.18 6.88 5.85 0 5.82-5.21 7.49-9.82 7.49-5.15 0-10.5-1.79-10.5-8.1zM314.33 136.96h3.2v2.33h.06c1.25-1.76 3.9-2.72 6.37-2.72 5.05 0 9.12 3.23 9.12 8.86s-4.07 8.87-9.12 8.87c-2.5 0-5.09-.9-6.37-2.72h-.06v8.61h-3.2zm9.21 2.3c-4.35 0-6.21 3-6.21 6.17 0 3.84 2.47 6.18 6.21 6.18s6.15-2.34 6.15-6.18c0-3.16-1.83-6.17-6.15-6.17zM347.8 136.38c6.53 0 9.72 4.13 9.72 9s-3.19 9-9.72 9-9.73-4.13-9.73-9 3.2-9 9.73-9zm0 2.69c-4.64 0-6.34 3.23-6.34 6.27s1.7 6.27 6.34 6.27 6.33-3.23 6.33-6.27-1.69-6.25-6.33-6.25z"/><path class="cls-3" d="M374.06 144.87h3.2v3.07h.07a6.45 6.45 0 0 1 5.76-3.65 6.24 6.24 0 0 1 1.82.19v3.46a9 9 0 0 0-2.27-.32c-3.17 0-5.38 1.85-5.38 5.5v8.51h-3.2zM391.06 139.71h3.2v5.16h4.8v2.49h-4.8v10.34c0 1.34 1 1.82 2.59 1.82a13.91 13.91 0 0 0 2.21-.22v2.7a20.19 20.19 0 0 1-3.59.23c-3.13 0-4.41-1.54-4.41-4v-10.87h-3.46v-2.49h3.46z" transform="translate(-10.81 -7.91)"/><path class="cls-3" d="M395.48 148.44c0 1.51 1.21 3.36 5.28 3.36s5.12-1.44 5.12-2.62-.61-1.89-3.17-2.24l-5.28-.71c-2.4-.32-4.54-1.85-4.54-4.44 0-3.4 2.94-5.41 7.64-5.41 5.51 0 7.91 2.37 8.19 5.63h-3.2c-.09-1.7-1.69-3.13-5-3.13-2.05 0-4.41.57-4.41 2.55 0 1.13.51 1.76 2.78 2.08l4.54.61c4.23.58 5.86 2.08 5.86 4.45 0 3.9-3.3 5.73-8.42 5.73-3.84 0-8.22-1-8.57-5.86z"/></svg>